# xmcd
# 
# Track frame offsets:
#     150
#     21900
#     41225
#     62175
#     79975
#     99050
#     115875
#     132600
#     157275
#     179175
#     198850
#     214600
#     233975
#     252625
#     273700
#     293875
# 
# Disc length: 4218
# 
# Revision: 4
# Processed by: cddbd v1.5.2PL0 Copyright (c) Steve Scherf et al.
# Submitted via: fre:ac v1.0.27
# 
DISCID=01107810
DTITLE=蔡琴 - 原生帶_經典好歌
DYEAR=1998
DGENRE=POP
TTITLE0=太陽出來了
TTITLE1=蝶衣
TTITLE2=你是我心中雲一朵
TTITLE3=情鎖
TTITLE4=火舞
TTITLE5=油麻菜籽
TTITLE6=月光
TTITLE7=我聽見我的心在哭
TTITLE8=傷心小站
TTITLE9=忽然想起你
TTITLE10=天天天天
TTITLE11=塔裡的女人
TTITLE12=讀你
TTITLE13=我和我自己的影子
TTITLE14=時間的河
TTITLE15=最後一夜
EXTD=
EXTT0=
EXTT1=
EXTT2=
EXTT3=
EXTT4=
EXTT5=
EXTT6=
EXTT7=
EXTT8=
EXTT9=
EXTT10=
EXTT11=
EXTT12=
EXTT13=
EXTT14=
EXTT15=
PLAYORDER=
